<svg width="91" height="19" viewBox="0 0 91 19" fill="none" xmlns="http://www.w3.org/2000/svg">
<path d="M0.504 1.2H7.68C9.904 1.2 11.568 1.504 12.672 2.112C13.792 2.704 14.352 3.712 14.352 5.136C14.352 7.328 13.032 8.64 10.392 9.072V9.12C13.592 9.52 15.192 10.912 15.192 13.296C15.192 15.04 14.536 16.264 13.224 16.968C11.912 17.656 10.024 18 7.56 18H0.504V17.544H2.064V1.656H0.504V1.2ZM6.744 9.504V17.544H7.872C8.752 17.544 9.368 17.24 9.72 16.632C10.072 16.024 10.248 15.128 10.248 13.944V12.672C10.248 11.616 10.032 10.824 9.6 10.296C9.168 9.768 8.4 9.504 7.296 9.504H6.744ZM6.744 1.656V9.048H7.368C8.2 9.048 8.776 8.8 9.096 8.304C9.432 7.792 9.6 7.016 9.6 5.976V4.848C9.6 3.664 9.456 2.84 9.168 2.376C8.88 1.896 8.328 1.656 7.512 1.656H6.744ZM22.3723 18.24C20.3083 18.24 18.7563 17.712 17.7163 16.656C16.6923 15.584 16.1803 14.104 16.1803 12.216C16.1803 10.312 16.7563 8.856 17.9083 7.848C19.0763 6.84 20.5563 6.336 22.3483 6.336C25.9803 6.336 27.7243 8.16 27.5803 11.808H20.8123V12.744C20.8123 14.312 21.0123 15.496 21.4123 16.296C21.8123 17.096 22.5083 17.496 23.5003 17.496C25.3563 17.496 26.5723 16.504 27.1483 14.52L27.5803 14.592C27.2763 15.744 26.7243 16.64 25.9243 17.28C25.1403 17.92 23.9563 18.24 22.3723 18.24ZM20.8363 11.328H23.3083V10.152C23.3083 8.856 23.2283 7.976 23.0683 7.512C22.9243 7.032 22.6203 6.792 22.1563 6.792C21.7083 6.792 21.3723 7.048 21.1483 7.56C20.9403 8.056 20.8363 8.92 20.8363 10.152V11.328ZM34.7473 18.24C32.6833 18.24 31.1313 17.712 30.0913 16.656C29.0673 15.584 28.5553 14.104 28.5553 12.216C28.5553 10.312 29.1313 8.856 30.2833 7.848C31.4513 6.84 32.9313 6.336 34.7233 6.336C38.3553 6.336 40.0993 8.16 39.9553 11.808H33.1873V12.744C33.1873 14.312 33.3873 15.496 33.7873 16.296C34.1873 17.096 34.8833 17.496 35.8753 17.496C37.7313 17.496 38.9473 16.504 39.5233 14.52L39.9553 14.592C39.6513 15.744 39.0993 16.64 38.2993 17.28C37.5153 17.92 36.3313 18.24 34.7473 18.24ZM33.2113 11.328H35.6833V10.152C35.6833 8.856 35.6033 7.976 35.4433 7.512C35.2993 7.032 34.9953 6.792 34.5313 6.792C34.0833 6.792 33.7473 7.048 33.5233 7.56C33.3153 8.056 33.2113 8.92 33.2113 10.152V11.328ZM41.0743 1.2H49.7143V1.728H47.1703V17.472H48.0343C49.3943 17.472 50.4743 17.056 51.2743 16.224C52.0903 15.392 52.9143 14.112 53.7463 12.384H54.2503L53.7943 18H41.0743V17.472H42.4903V1.728H41.0743V1.2ZM58.6352 4.92C57.7872 4.92 57.1792 4.704 56.8112 4.272C56.4592 3.84 56.2832 3.304 56.2832 2.664C56.2832 2.024 56.4752 1.496 56.8592 1.08C57.2592 0.664 57.8592 0.456 58.6592 0.456C59.4592 0.456 60.0672 0.648 60.4832 1.032C60.8992 1.4 61.1072 1.936 61.1072 2.64C61.1072 3.328 60.9072 3.88 60.5072 4.296C60.1072 4.712 59.4832 4.92 58.6352 4.92ZM55.0112 6.576H60.8912V17.568H62.2352V18H55.1072V17.568H56.4272V7.008H55.0112V6.576ZM70.4764 13.272V11.232C70.4764 9.68 70.3884 8.552 70.2124 7.848C70.0524 7.128 69.6684 6.768 69.0604 6.768C68.7084 6.768 68.4204 6.872 68.1964 7.08C67.9884 7.272 67.8364 7.6 67.7404 8.064C67.5964 8.784 67.5244 9.88 67.5244 11.352V13.224C67.5244 14.968 67.5724 16.016 67.6684 16.368C67.7804 16.72 67.8924 17.008 68.0044 17.232C68.1804 17.616 68.5244 17.808 69.0364 17.808C69.6604 17.808 70.0684 17.448 70.2604 16.728C70.4044 16.216 70.4764 15.064 70.4764 13.272ZM68.9884 18.24C66.9884 18.24 65.4764 17.728 64.4524 16.704C63.4284 15.68 62.9164 14.216 62.9164 12.312C62.9164 10.392 63.4604 8.92 64.5484 7.896C65.6524 6.856 67.1964 6.336 69.1804 6.336C71.1644 6.336 72.6444 6.816 73.6204 7.776C74.5964 8.72 75.0844 10.168 75.0844 12.12C75.0844 16.2 73.0524 18.24 68.9884 18.24ZM75.8036 6.576H81.5876V8.784C81.8436 8.048 82.2356 7.456 82.7636 7.008C83.2916 6.56 84.0916 6.336 85.1636 6.336C87.6436 6.336 88.8836 7.672 88.8836 10.344V17.568H90.2276V18H83.4356V17.568H84.4196V9.768C84.4196 8.808 84.3556 8.192 84.2276 7.92C84.0996 7.632 83.8676 7.488 83.5316 7.488C83.0196 7.488 82.5636 7.824 82.1636 8.496C81.7796 9.168 81.5876 9.984 81.5876 10.944V17.568H82.6196V18H75.8036V17.568H77.1236V7.008H75.8036V6.576Z" fill="black"/>
</svg>
